# xmcd CD database file
#
# Track frame offsets:
#	150
#	12467
#	28647
#	51850
#	70810
#	90115
#	110640
#	131522
#	150932
#	167452
#	184740
#	200342
#
# Disc length: 2889 seconds
#
# Revision: 1
# Processed by: cddbd v1.5.1PL2 Copyright (c) Steve Scherf et al.
# Submitted via: CDex 1.51
#
DISCID=8e0b470c
DTITLE=Catdaddy Jones - Late Night In The Dog House
DYEAR=2003
DGENRE=Blues
TTITLE0=I Take What I Want
TTITLE1=Tell Me Straight
TTITLE2=A Touch Of The Blues
TTITLE3=I Call Your Name
TTITLE4=(I've Been) Drinking Again
TTITLE5=You Got The Box
TTITLE6=Night In The City (It's A Life)
TTITLE7=Blues In Me
TTITLE8=Two Candles
TTITLE9=You Sure Drive A Hard Bargain
TTITLE10=Make A Wish
TTITLE11=Pretty Flamingo
EXTD=Steve Podgorski YEAR: 2003
EXTT0=
EXTT1=
EXTT2=
EXTT3=
EXTT4=
EXTT5=
EXTT6=
EXTT7=
EXTT8=
EXTT9=
EXTT10=
EXTT11=
PLAYORDER=
